<svg
  width="256"
  height="256"
  viewBox="0 0 256 256"
  fill="none"
  xmlns="http://www.w3.org/2000/svg">
  <g transform="scale(0.7314285714)">
    <path
      d="M36.8813 152.311C35.4718 153.705 34.6089 155.583 34.5241 157.578C34.4389 159.573 35.1321 161.514 36.4591 162.983C37.7861 164.452 39.6468 165.339 41.6399 165.456C43.6333 165.574 45.5891 164.906 47.1187 163.645C47.1187 163.645 47.1187 163.645 47.1187 163.645C58.1161 154.607 69.9434 146.516 82.2191 139.182C106.217 124.902 131.853 113.346 158.208 104.387C171.325 99.9669 184.716 96.1687 197.945 93.6469C204.508 92.4118 211.116 91.4821 217.069 91.3204C219.856 91.2382 222.906 91.4193 224.361 91.795C224.741 91.8856 224.96 91.9714 224.994 92.0037C225.008 92.0183 224.954 92.0119 224.83 91.9653C224.701 91.9152 224.528 91.8455 224.194 91.6448C223.572 91.2583 222.523 90.5117 221.487 88.8882C220.47 87.3152 219.958 85.2487 219.965 83.7851L221.271 89.8438C220.327 87.9589 220.535 85.8231 220.644 85.4592C220.746 85.0029 220.584 85.4862 220.039 86.2315C219.056 87.6448 216.932 89.9431 214.739 91.9384C210.129 96.1691 204.479 100.385 198.663 104.442C186.921 112.59 174.307 120.267 161.561 127.919C135.828 143.906 110.386 155.868 83.1228 178.99C81.9111 180.157 80.3826 181.776 79.1397 183.36L77.9833 184.956C77.44 185.87 76.9654 186.613 76.076 188.338C75.9027 188.683 75.5025 189.486 75.1664 190.329C74.9895 190.77 74.8039 191.27 74.6178 191.866C74.4111 192.523 74.0545 193.793 73.8876 195.285C73.7473 196.918 73.5721 198.432 74.3302 201.589C75.1141 204.935 77.6847 208.801 80.5846 210.836C85.5964 214.227 88.1741 213.928 90.0872 214.159C92.4772 214.242 94.0248 213.921 94.6922 213.802C95.5038 213.648 96.3904 213.435 96.8338 213.309C97.3727 213.162 97.8988 213.008 98.4346 212.847C98.9125 212.7 99.3047 212.57 99.755 212.423C103.196 211.28 106.158 210.178 109.323 209.101C115.469 206.983 121.704 205.071 128.188 203.8C184.858 193.072 244.088 190.828 303.175 190.263L305.448 190.058C306.105 189.952 306.551 189.887 306.944 189.838C307.151 189.813 307.261 189.805 307.196 189.813C307.163 189.816 306.994 189.836 306.541 189.84C306.31 189.84 306.001 189.837 305.534 189.801C305.475 189.796 305.414 189.791 305.35 189.785C305.318 189.782 305.285 189.779 305.252 189.775C305.176 189.768 305.069 189.756 304.969 189.744C304.557 189.692 304.048 189.616 303.354 189.447C302.02 189.011 299.63 188.754 296.047 185.104C294.333 183.291 292.674 180.21 292.307 177.04C291.949 174.005 292.451 171.922 293.051 170.181C294.345 166.801 295.737 165.565 296.584 164.667C297.469 163.813 298.037 163.423 298.461 163.127C298.718 162.953 298.73 162.948 298.814 162.894C298.886 162.848 298.952 162.807 299.013 162.77C299.499 162.476 299.707 162.38 299.812 162.326C299.97 162.248 299.848 162.306 299.693 162.367C299.308 162.521 298.915 162.669 298.303 162.892C296.126 163.68 293.713 164.483 291.2 165.314C286.26 166.94 281.166 168.574 276.096 170.21C265.912 173.492 255.737 176.795 245.55 180.202C225.183 187.016 204.844 194.17 184.664 202.118C184.409 202.219 184.154 202.319 183.9 202.42C155.552 213.644 128.06 226.4 101.105 240.331C87.8988 247.176 74.9403 254.206 61.9113 261.811C59.06 263.501 56.9139 266.207 55.9872 269.411C55.0601 272.615 55.4213 276.041 56.9995 278.952C58.5778 281.863 61.2522 284.035 64.4427 285.006C67.6335 285.978 71.072 285.656 74.0439 284.189C74.0439 284.189 74.0439 284.189 74.0439 284.189C86.8997 277.942 100.247 271.752 113.453 265.744C140.517 253.458 167.686 241.691 195.131 230.826C195.377 230.728 195.624 230.631 195.87 230.534C215.359 222.854 235.245 215.735 255.261 208.854C265.278 205.412 275.303 202.048 285.439 198.662C290.494 196.971 295.572 195.28 300.69 193.529C303.331 192.62 305.778 191.78 308.635 190.71C309.039 190.557 309.428 190.408 309.805 190.26C310.187 190.109 310.514 189.98 311.054 189.754C311.299 189.651 311.545 189.546 311.797 189.434C312.071 189.311 312.225 189.245 312.746 188.994C313.201 188.769 313.698 188.52 314.407 188.09C314.496 188.036 314.589 187.978 314.687 187.916C314.8 187.843 314.823 187.832 315.148 187.612C315.681 187.242 316.334 186.784 317.283 185.868C318.194 184.908 319.627 183.616 320.938 180.186C321.548 178.419 322.053 176.315 321.692 173.254C321.322 170.058 319.651 166.953 317.917 165.118C314.294 161.424 311.831 161.133 310.389 160.67C309.642 160.489 309.07 160.401 308.587 160.341C308.469 160.326 308.343 160.313 308.251 160.303C308.211 160.299 308.171 160.295 308.132 160.292C308.054 160.284 307.978 160.278 307.905 160.272C307.32 160.226 306.875 160.219 306.488 160.219C305.746 160.221 305.096 160.27 304.738 160.301C304.135 160.353 303.6 160.418 303.051 160.493C302.078 160.628 301.432 160.736 300.526 160.892L302.799 160.687C242.687 162.021 182.765 165.008 122.798 176.323C115.914 177.673 108.975 178.661 102.05 179.79C98.5456 180.36 95.0077 180.995 91.9014 181.533C91.5118 181.599 91.1912 181.648 90.8506 181.701C90.4724 181.762 90.1614 181.805 89.9367 181.825C89.7391 181.841 89.4925 181.859 89.5768 181.817C89.6117 181.806 89.9654 181.625 91.736 181.662C93.1262 181.863 95.3221 181.485 100.019 184.652C102.739 186.553 105.193 190.245 105.921 193.374C106.628 196.321 106.455 197.682 106.338 199.098C106.192 200.392 105.906 201.382 105.762 201.848C105.629 202.277 105.51 202.598 105.411 202.85C105.217 203.343 105.087 203.6 105.067 203.66C104.992 203.836 105.099 203.674 105.233 203.487C105.366 203.298 105.558 203.017 105.793 202.67L104.637 204.266C104.899 204 105.511 203.368 106.122 202.782C124.668 186.858 153.349 171.341 178.381 155.343C191.238 147.255 204.075 139.02 216.798 129.61C223.147 124.866 229.437 119.939 235.72 113.763C238.731 110.752 242.073 107.19 245.05 102.538C247.686 98.0353 253.014 89.5828 248.07 77.7263L249.376 83.7851C249.774 76.8931 244.103 69.1973 239.941 67.0689C235.731 64.5101 232.557 63.8807 229.694 63.3319C224.264 62.4306 219.627 62.6068 215.561 62.8808C207.126 63.5263 199.569 65.0471 192.12 66.8292C177.253 70.4607 163.169 75.3529 149.45 80.9134C121.967 92.1506 95.931 106.177 71.8082 123.269C59.4797 132.04 47.6965 141.658 36.8813 152.311Z"
      fill="#8B5CF6" />
    <circle cx="273" cy="128" r="13" stroke="#8B5CF6" stroke-width="26" />
  </g>
</svg>
